<?xml version="1.0" encoding="UTF-8" standalone="no"?>
<!-- Created with Inkscape (http://www.inkscape.org/) -->

<svg
   width="210mm"
   height="297mm"
   viewBox="0 0 210 297"
   version="1.1"
   id="svg1"
   xml:space="preserve"
   sodipodi:docname="dark light--switch - on.svg"
   inkscape:version="1.3 (0e150ed6c4, 2023-07-21)"
   inkscape:export-filename="dark light--switch - on.png"
   inkscape:export-xdpi="13.11"
   inkscape:export-ydpi="13.11"
   xmlns:inkscape="http://www.inkscape.org/namespaces/inkscape"
   xmlns:sodipodi="http://sodipodi.sourceforge.net/DTD/sodipodi-0.dtd"
   xmlns="http://www.w3.org/2000/svg"
   xmlns:svg="http://www.w3.org/2000/svg"><sodipodi:namedview
     id="namedview1"
     pagecolor="#ffffff"
     bordercolor="#000000"
     borderopacity="0.25"
     inkscape:showpageshadow="2"
     inkscape:pageopacity="0.0"
     inkscape:pagecheckerboard="0"
     inkscape:deskcolor="#d1d1d1"
     inkscape:document-units="mm"
     inkscape:zoom="0.87761596"
     inkscape:cx="268.34061"
     inkscape:cy="546.36655"
     inkscape:window-width="1920"
     inkscape:window-height="1137"
     inkscape:window-x="-8"
     inkscape:window-y="-8"
     inkscape:window-maximized="1"
     inkscape:current-layer="layer1" /><defs
     id="defs1" /><g
     inkscape:label="Layer 1"
     inkscape:groupmode="layer"
     id="layer1"><rect
       style="opacity:0.96;fill:#36393e;fill-opacity:1;stroke:#36393e;stroke-width:2.99999;stroke-linecap:square;stroke-linejoin:bevel;stroke-miterlimit:0;stroke-dasharray:none;stroke-opacity:0.96078432;paint-order:stroke markers fill"
       id="rect1"
       width="107.00001"
       height="47.000011"
       x="31.499994"
       y="120.79943"
       rx="28.679928"
       ry="30.976505"
       inkscape:export-filename="switch - off.png"
       inkscape:export-xdpi="12.007274"
       inkscape:export-ydpi="12.007274" /><circle
       style="opacity:0.96;fill:#a1cafd;fill-opacity:1;stroke:#36393e;stroke-width:0;stroke-linecap:square;stroke-linejoin:bevel;stroke-miterlimit:0;stroke-dasharray:none;stroke-opacity:0.96078432;paint-order:stroke markers fill"
       id="path2"
       cx="112.33717"
       cy="144.29944"
       r="21" /><rect
       style="opacity:0;fill:#e2e2e2;stroke-width:4;stroke-linecap:square;stroke-linejoin:bevel;stroke-miterlimit:0;paint-order:stroke markers fill"
       id="rect2"
       width="120.00001"
       height="62"
       x="25.000002"
       y="113.29944"
       rx="0.40922245"
       ry="0.40922242" /><path
       d="m 55.000014,149.32263 c -1.393899,0 -2.579584,-0.48872 -3.557053,-1.46614 -0.977452,-0.97749 -1.466178,-2.16319 -1.466178,-3.55709 0,-1.39387 0.488726,-2.57956 1.466178,-3.55705 0.977469,-0.97743 2.163154,-1.46615 3.557053,-1.46615 1.393901,0 2.579586,0.48872 3.557055,1.46615 0.977452,0.97749 1.466178,2.16318 1.466178,3.55705 0,1.3939 -0.488726,2.5796 -1.466178,3.55709 -0.977469,0.97742 -2.163154,1.46614 -3.557055,1.46614 z m -7.81396,-4.18601 H 43 v -1.6744 h 4.186054 z m 19.813946,0 h -4.186024 v -1.6744 H 67 Z m -12.837168,-8.65116 v -4.18602 h 1.674366 v 4.18602 z m 0,19.81398 v -4.18606 h 1.674366 v 4.18606 z m -5.220758,-16.93746 -2.614665,-2.52449 1.182782,-1.23862 2.518077,2.58676 z m 13.547763,13.6379 -2.535241,-2.60388 1.103359,-1.15917 2.614666,2.52448 z m -2.552405,-14.75843 2.524497,-2.61464 1.238597,1.18275 -2.586757,2.51808 z m -13.637928,13.54779 2.603915,-2.53525 1.137715,1.10336 -2.513749,2.6254 z"
       id="path1"
       style="fill:#c3c6cf;fill-opacity:1;stroke-width:0.00661459"
       sodipodi:nodetypes="scscscscscccccccccccccccccccccccccccccccccccccccc" /><path
       d="m 112.37793,156.30618 c -3.34466,0 -6.18762,-1.17064 -8.52887,-3.51193 -2.34128,-2.34129 -3.51192,-5.18426 -3.51192,-8.52891 0,-3.20542 1.08739,-5.95454 3.26217,-8.24735 2.17477,-2.29285 4.83762,-3.53462 7.98857,-3.72529 0.20338,0 0.40314,0.007 0.59928,0.0214 0.19613,0.0143 0.38863,0.036 0.5775,0.0653 -0.72281,0.67559 -1.2985,1.49193 -1.72708,2.44901 -0.42861,0.95711 -0.64292,1.97775 -0.64292,3.06193 0,2.32162 0.81257,4.295 2.43771,5.92014 1.62513,1.62511 3.59851,2.43766 5.92012,2.43766 1.09874,0 2.12302,-0.2143 3.07283,-0.64291 0.94981,-0.42857 1.75797,-1.00426 2.42449,-1.72708 0.0289,0.18882 0.0507,0.38133 0.0654,0.57753 0.0147,0.19631 0.022,0.39607 0.022,0.59927 -0.18165,3.15095 -1.41888,5.81382 -3.7117,7.9886 -2.29283,2.17478 -5.04196,3.26217 -8.24737,3.26217 z m 0,-2.12482 0,-3.8e-4 z"
       id="path1-1"
       style="stroke-width:0.00661461;fill:#c5d7f1;fill-opacity:1"
       sodipodi:nodetypes="cssccscssssscscsccccc" /></g><g
     inkscape:groupmode="layer"
     id="layer2"
     inkscape:label="Layer 2" /></svg>
