<?xml version="1.0" encoding="UTF-8" standalone="no"?>
<svg
   width="30"
   height="30"
   viewBox="0 0 30 30"
   version="1.1"
   id="svg1"
   sodipodi:docname="graph-palette.svg"
   inkscape:version="1.3 (0e150ed6c4, 2023-07-21)"
   xmlns:inkscape="http://www.inkscape.org/namespaces/inkscape"
   xmlns:sodipodi="http://sodipodi.sourceforge.net/DTD/sodipodi-0.dtd"
   xmlns="http://www.w3.org/2000/svg"
   xmlns:svg="http://www.w3.org/2000/svg">
  <defs
     id="defs1" />
  <sodipodi:namedview
     id="namedview1"
     pagecolor="#ffffff"
     bordercolor="#000000"
     borderopacity="0.25"
     inkscape:showpageshadow="2"
     inkscape:pageopacity="0.0"
     inkscape:pagecheckerboard="0"
     inkscape:deskcolor="#d1d1d1"
     inkscape:zoom="6.0811183"
     inkscape:cx="4.7688597"
     inkscape:cy="46.784158"
     inkscape:window-width="1920"
     inkscape:window-height="1129"
     inkscape:window-x="1912"
     inkscape:window-y="-8"
     inkscape:window-maximized="1"
     inkscape:current-layer="layer5">
    <inkscape:page
       x="0"
       y="0"
       width="30"
       height="30"
       id="page1"
       margin="0"
       bleed="0"
       inkscape:label="zoom-inactive"
       inkscape:export-filename=".\graph-palette\zoom-press.png"
       inkscape:export-xdpi="96"
       inkscape:export-ydpi="96" />
    <inkscape:page
       x="34.767441"
       y="-0.23255815"
       width="30"
       height="30"
       id="page2"
       margin="0"
       bleed="0"
       inkscape:label="zoom-press" />
    <inkscape:page
       x="-0.23255815"
       y="32.55814"
       width="30"
       height="30"
       id="page3"
       margin="0"
       bleed="0"
       inkscape:label="pan-inactive" />
    <inkscape:page
       x="35.813953"
       y="32.906979"
       width="30"
       height="30"
       id="page4"
       margin="0"
       bleed="0"
       inkscape:label="pan-press"
       inkscape:export-filename=".\graph-palette\pan-inactive.png"
       inkscape:export-xdpi="96"
       inkscape:export-ydpi="96" />
    <inkscape:page
       x="0.46511629"
       y="66.744186"
       width="30"
       height="30"
       id="page5"
       margin="0"
       bleed="0"
       inkscape:label="cursor-inactive" />
    <inkscape:page
       x="36.046513"
       y="67.093025"
       width="30"
       height="30"
       id="page6"
       margin="0"
       bleed="0"
       inkscape:label="cursor-press" />
  </sodipodi:namedview>
  <g
     inkscape:groupmode="layer"
     id="layer1"
     inkscape:label="zoom-inactive">
    <ellipse
       style="fill:#ffffff;fill-opacity:0.7;stroke:none;stroke-width:1;stroke-linecap:round;stroke-linejoin:round;stroke-miterlimit:0;stroke-dasharray:none;stroke-opacity:1;paint-order:markers fill stroke"
       id="path6-9"
       cx="12"
       cy="12"
       rx="6.4999995"
       ry="6.5" />
    <path
       d="m 20.367352,18.22327 h -1.129216 l -0.400229,-0.385935 a 9.2495716,9.2495716 0 0 0 2.24414,-6.046313 9.2910233,9.2910233 0 1 0 -9.291025,9.291025 c 2.301316,0 4.41681,-0.84334 6.046313,-2.24414 l 0.385935,0.400229 v 1.129216 L 25.370211,27.5 27.5,25.370211 Z m -8.57633,0 c -3.5591759,0 -6.4322463,-2.87307 -6.4322463,-6.432248 0,-3.5591761 2.8730704,-6.4322465 6.4322463,-6.4322465 3.559178,0 6.432248,2.8730704 6.432248,6.4322465 0,3.559178 -2.87307,6.432248 -6.432248,6.432248 z M 12.505717,8.2175519 H 11.076329 V 11.076329 H 8.2175522 v 1.429388 h 2.8587768 v 2.858776 h 1.429388 v -2.858776 h 2.858776 v -1.429388 h -2.858776 z"
       id="path1"
       style="stroke-width:1;fill:#969696;fill-opacity:1" />
  </g>
  <g
     inkscape:groupmode="layer"
     id="layer2"
     inkscape:label="zoom-press">
    <rect
       style="fill:#b4b4b4;fill-opacity:0.7;stroke:none;stroke-width:1;stroke-linecap:round;stroke-linejoin:round;stroke-miterlimit:0;stroke-dasharray:none;stroke-opacity:1;paint-order:markers fill stroke"
       id="rect6"
       width="30"
       height="30"
       x="34.767441"
       y="-0.23255815"
       rx="0"
       ry="0" />
    <ellipse
       style="fill:#ffffff;fill-opacity:0.7;stroke:none;stroke-width:1;stroke-linecap:round;stroke-linejoin:round;stroke-miterlimit:0;stroke-dasharray:none;stroke-opacity:1;paint-order:markers fill stroke"
       id="path6"
       cx="46.117439"
       cy="11.117441"
       rx="7.75"
       ry="7.7499995" />
    <path
       d="m 56.208262,18.635365 h -1.35506 l -0.480274,-0.463122 a 11.099486,11.099486 0 0 0 2.692968,-7.255575 11.149228,11.149228 0 1 0 -11.14923,11.149229 c 2.761579,0 5.300172,-1.012008 7.255575,-2.692968 l 0.463122,0.480275 v 1.355059 l 8.576329,8.559178 2.555747,-2.555747 z m -10.291596,0 c -4.271012,0 -7.718696,-3.447684 -7.718696,-7.718697 0,-4.2710114 3.447684,-7.7186959 7.718696,-7.7186959 4.271013,0 7.718697,3.4476845 7.718697,7.7186959 0,4.271013 -3.447684,7.718697 -7.718697,7.718697 z M 46.7743,6.6285038 h -1.715266 v 3.4305322 h -3.430532 v 1.715266 h 3.430532 v 3.430531 H 46.7743 v -3.430531 h 3.430531 V 10.059036 H 46.7743 Z"
       id="path1-9"
       style="stroke-width:1;fill:#505050;fill-opacity:1;stroke:none;stroke-opacity:1" />
  </g>
  <g
     inkscape:groupmode="layer"
     id="layer3"
     inkscape:label="pan-inactive">
    <path
       style="fill:#ffffff;fill-opacity:0.7;stroke:#000000;stroke-width:0;stroke-linecap:round;stroke-linejoin:round;stroke-miterlimit:0;stroke-dasharray:none;stroke-opacity:1;paint-order:markers fill stroke"
       d="m 12.898028,58.112232 c -0.652224,-0.290068 -7.1209563,-6.934949 -6.9762403,-7.166209 0.05811,-0.09286 0.633791,-0.991046 0.726585,-0.991046 0.09279,0 2.8230295,1.522383 4.3588063,2.327896 L 11.5685,39.349153 c 0.082,-0.127782 0.995573,-0.122075 1.175981,-0.08781 0.308469,0.05858 0.330801,0.306013 0.374788,4.152204 l 0.622332,3.925462 c 0.54428,0.22623 0.204032,0.08222 0.781678,0.08222 0.08088,-1.879728 -2.110133,-11.351826 1.670632,-10.615978 0.246519,0.202061 1.28216,0.888999 0.81501,5.464088 l -0.123332,5.151895 c 0.673727,0.104551 0.11887,0.08222 0.79801,0.08222 0.384143,-2.940199 -1.370328,-10.319179 1.923735,-10.382248 0.893605,-0.01711 1.129785,3.455812 0.597922,1.943511 0.783685,0.831154 -0.05017,1.078905 -0.0487,3.661283 l 0.08522,4.777454 0.880228,-0.08222 -0.123333,-3.473054 c -0.119759,-3.372428 1.702014,-3.657151 2.016029,-3.034911 0.946369,5.230395 0.585657,10.824402 0.195136,16.156885 -0.55986,1.106856 -1.423659,1.28865 -5.862719,1.281325 -2.910238,-0.0048 -4.060711,-0.06667 -4.448743,-0.239243 z"
       id="path7"
       inkscape:label="path7"
       sodipodi:nodetypes="cssccssccssccsccccsscscc" />
    <path
       d="m 21.405624,60.058139 h -6.825761 c -1.125469,0 -2.230095,-0.468945 -3.011671,-1.281784 L 3.9608557,50.845968 6.1180045,48.938923 C 6.764107,48.365768 7.7124188,48.251137 8.4731524,48.657556 l 2.5114626,1.33389 v -9.952064 a 2.6052522,2.6052522 0 0 1 3.136724,-2.553147 c 0.09379,-1.354731 1.219258,-2.428095 2.594832,-2.428095 0.896206,0 1.677782,0.448104 2.146727,1.13589 0.30221,-0.125053 0.635681,-0.187579 0.979575,-0.187579 a 2.6052522,2.6052522 0 0 1 2.605252,2.605253 v 0.291788 a 2.6052522,2.6052522 0 0 1 3.126303,2.553148 v 14.433096 c 0,2.303043 -1.865361,4.168403 -4.168404,4.168403 z m -14.4435178,-9.08712 6.1067108,6.356816 c 0.395999,0.406419 0.937891,0.646103 1.500626,0.646103 h 6.836181 c 1.146311,0 2.084201,-0.937891 2.084201,-2.084202 V 41.45664 c 0,-0.291789 -0.229261,-0.521051 -0.52105,-0.521051 -0.291787,0 -0.52105,0.229262 -0.52105,0.521051 v 6.096289 h -2.084202 v -8.941225 c 0,-0.291788 -0.229261,-0.52105 -0.52105,-0.52105 -0.291789,0 -0.52105,0.229262 -0.52105,0.52105 v 8.941225 h -2.084202 v -9.889537 c 0,-0.291788 -0.229263,-0.521051 -0.52105,-0.521051 -0.291789,0 -0.521052,0.229263 -0.521052,0.521051 v 9.889537 h -2.084201 v -7.513547 c 0,-0.291788 -0.229262,-0.521051 -0.52105,-0.521051 -0.291789,0 -0.521051,0.239684 -0.521051,0.521051 V 53.451219 L 7.4935776,50.502074 Z"
       id="path1-91"
       style="stroke-width:1;fill:#969696;fill-opacity:1" />
  </g>
  <g
     inkscape:groupmode="layer"
     id="layer4"
     inkscape:label="pan-press">
    <rect
       style="fill:#b4b4b4;fill-opacity:0.7;stroke:none;stroke-width:1;stroke-linecap:round;stroke-linejoin:round;stroke-miterlimit:0;stroke-dasharray:none;stroke-opacity:1;paint-order:markers fill stroke"
       id="rect6-0"
       width="30"
       height="30"
       x="35.813953"
       y="32.906979"
       rx="0"
       ry="0" />
    <path
       style="fill:#ffffff;fill-opacity:0.7;stroke:#000000;stroke-width:0;stroke-linecap:round;stroke-linejoin:round;stroke-miterlimit:0;stroke-dasharray:none;stroke-opacity:1;paint-order:markers fill stroke"
       d="m 49.511976,60.819153 c -0.780979,-0.354114 -8.526695,-8.466147 -8.353411,-8.748468 0.06958,-0.113361 0.758908,-1.209862 0.87002,-1.209862 0.111107,0 3.380319,1.858515 5.219272,2.841882 l 0.67213,-15.789412 c 0.09818,-0.155993 1.192109,-0.149027 1.408131,-0.107201 0.369363,0.07152 1.66393,0.214401 1.435437,4.904542 l -0.241476,4.956625 c 0.651725,0.27618 0.244308,0.10038 0.935988,0.10038 0.09685,-2.294762 -2.526694,-13.858244 2.000429,-12.959924 0.295184,0.246674 1.53527,1.085283 0.9759,6.670526 l -0.147678,6.289403 c 0.806725,0.127636 0.142335,0.10038 0.955544,0.10038 0.459975,-3.589378 -1.640844,-12.597594 2.303497,-12.674586 1.070011,-0.02089 1.352814,4.218832 0.715957,2.372625 0.938392,1.014668 -0.06007,1.317121 -0.05832,4.469672 l 0.102051,5.832289 1.053994,-0.10038 -0.147681,-4.239887 c -0.143399,-4.117041 2.038008,-4.46463 2.414011,-3.705003 1.133192,6.385237 0.701272,13.214368 0.233657,19.724231 -0.67038,1.351244 -1.704701,1.573176 -7.02007,1.564235 -3.484745,-0.0059 -4.862331,-0.08139 -5.326965,-0.292067 z"
       id="path7-8"
       inkscape:label="path7"
       sodipodi:nodetypes="cssccssccssccsccccsscscc" />
    <path
       d="m 58.779772,62.906978 h -8.190913 c -1.350563,0 -2.676114,-0.562734 -3.614006,-1.538141 l -9.128803,-9.516464 2.588578,-2.288454 c 0.775323,-0.687786 1.913298,-0.825343 2.826177,-0.33764 l 3.013756,1.600668 V 38.88447 a 3.1263026,3.1263026 0 0 1 3.764069,-3.063777 c 0.112548,-1.625677 1.463109,-2.913714 3.113798,-2.913714 1.075447,0 2.013339,0.537725 2.576073,1.363068 0.362652,-0.150063 0.762817,-0.225094 1.17549,-0.225094 a 3.1263026,3.1263026 0 0 1 3.126302,3.126303 v 0.350146 a 3.1263026,3.1263026 0 0 1 3.751564,3.063777 v 17.319716 c 0,2.763651 -2.238434,5.002083 -5.002085,5.002083 z M 41.44755,52.002434 l 7.328053,7.628179 c 0.475199,0.487703 1.12547,0.775324 1.800752,0.775324 h 8.203417 c 1.375573,0 2.501041,-1.125469 2.501041,-2.501042 V 40.585179 c 0,-0.350146 -0.275113,-0.625261 -0.62526,-0.625261 -0.350144,0 -0.62526,0.275115 -0.62526,0.625261 v 7.315547 h -2.501042 v -10.72947 c 0,-0.350145 -0.275114,-0.62526 -0.62526,-0.62526 -0.350147,0 -0.62526,0.275115 -0.62526,0.62526 v 10.72947 H 53.777688 V 36.033282 c 0,-0.350146 -0.275115,-0.625261 -0.62526,-0.625261 -0.350147,0 -0.625262,0.275115 -0.625262,0.625261 V 47.900726 H 50.026125 V 38.88447 c 0,-0.350146 -0.275115,-0.625261 -0.62526,-0.625261 -0.350147,0 -0.625262,0.28762 -0.625262,0.625261 V 54.978674 L 42.085317,51.4397 Z"
       id="path1-91-1"
       style="stroke-width:1;fill:#505050;fill-opacity:1" />
  </g>
  <g
     inkscape:groupmode="layer"
     id="layer5"
     inkscape:label="cursor-inactive">
    <path
       d="m 15.593375,84.180031 q -1.145833,0 -1.961806,-0.815972 -0.815972,-0.815973 -0.815972,-1.961806 0,-1.145833 0.815972,-1.961806 0.815973,-0.815972 1.961806,-0.815972 1.145833,0 1.961805,0.815972 0.815973,0.815973 0.815973,1.961806 0,1.145833 -0.815973,1.961806 -0.815972,0.815972 -1.961805,0.815972 z m -1.388889,-8.333334 v -6.944444 h 2.777778 v 6.944444 z m 0,18.055556 v -6.944444 h 2.777778 v 6.944444 z m 6.944445,-11.111111 v -2.777778 h 6.944444 v 2.777778 z m -18.0555555,0 v -2.777778 h 6.9444435 v 2.777778 z"
       id="path1-4"
       style="stroke-width:0.025;fill:#969696;fill-opacity:1" />
  </g>
  <g
     inkscape:groupmode="layer"
     id="layer6"
     inkscape:label="cursor-press">
    <rect
       style="fill:#b4b4b4;fill-opacity:0.7;stroke:none;stroke-width:1;stroke-linecap:round;stroke-linejoin:round;stroke-miterlimit:0;stroke-dasharray:none;stroke-opacity:1;paint-order:markers fill stroke"
       id="rect6-8"
       width="30"
       height="30"
       x="36.046513"
       y="67.093025"
       rx="0"
       ry="0" />
    <path
       d="m 51.046512,85.426359 q -1.375,0 -2.354167,-0.979166 -0.979167,-0.979168 -0.979167,-2.354168 0,-1.374999 0.979167,-2.354167 0.979167,-0.979166 2.354167,-0.979166 1.374999,0 2.354166,0.979166 0.979167,0.979168 0.979167,2.354167 0,1.375 -0.979167,2.354168 -0.979167,0.979166 -2.354166,0.979166 z M 49.379845,75.426358 v -8.333333 h 3.333334 v 8.333333 z m 0,21.666667 v -8.333332 h 3.333334 v 8.333332 z m 8.333334,-13.333333 v -3.333333 h 8.333334 v 3.333333 z m -21.666666,0 v -3.333333 h 8.333332 v 3.333333 z"
       id="path1-4-3"
       style="stroke-width:0.025;fill:#505050;fill-opacity:1" />
  </g>
</svg>
