<?xml version="1.0" encoding="UTF-8" standalone="no"?>
<!-- Created with Inkscape (http://www.inkscape.org/) -->

<svg
   width="28mm"
   height="24mm"
   viewBox="0 0 28 24"
   version="1.1"
   id="svg1"
   sodipodi:docname="increment.svg"
   inkscape:version="1.3 (0e150ed6c4, 2023-07-21)"
   inkscape:export-filename=".\increment\increment.png"
   inkscape:export-xdpi="12.7"
   inkscape:export-ydpi="12.7"
   xmlns:inkscape="http://www.inkscape.org/namespaces/inkscape"
   xmlns:sodipodi="http://sodipodi.sourceforge.net/DTD/sodipodi-0.dtd"
   xmlns="http://www.w3.org/2000/svg"
   xmlns:svg="http://www.w3.org/2000/svg">
  <sodipodi:namedview
     id="namedview1"
     pagecolor="#ffffff"
     bordercolor="#000000"
     borderopacity="0.25"
     inkscape:showpageshadow="2"
     inkscape:pageopacity="0.0"
     inkscape:pagecheckerboard="0"
     inkscape:deskcolor="#d1d1d1"
     inkscape:document-units="mm"
     inkscape:zoom="1.5875"
     inkscape:cx="203.46457"
     inkscape:cy="114.33071"
     inkscape:window-width="1920"
     inkscape:window-height="1129"
     inkscape:window-x="-8"
     inkscape:window-y="-8"
     inkscape:window-maximized="1"
     inkscape:current-layer="layer25">
    <inkscape:page
       x="0"
       y="0"
       width="28"
       height="24"
       id="page1"
       margin="0"
       bleed="0"
       inkscape:label="increment-nopress" />
    <inkscape:page
       x="0.41666666"
       y="26.666666"
       width="28"
       height="24"
       id="page2"
       margin="0"
       bleed="0"
       inkscape:label="increment-press"
       inkscape:export-filename=".\increment\increment-press.png"
       inkscape:export-xdpi="12.7"
       inkscape:export-ydpi="12.7" />
    <inkscape:page
       x="28.916666"
       y="-0.49999997"
       width="28"
       height="24"
       id="page3"
       margin="0"
       bleed="0"
       inkscape:label="decrement-nopress"
       inkscape:export-filename=".\increment\decrement-press.png"
       inkscape:export-xdpi="12.7"
       inkscape:export-ydpi="12.7" />
    <inkscape:page
       x="29.249998"
       y="27.333332"
       width="28"
       height="24"
       id="page4"
       margin="0"
       bleed="0"
       inkscape:label="decrement-press" />
    <inkscape:page
       x="1.4142135"
       y="54.565071"
       width="24"
       height="22"
       id="page5"
       inkscape:label="blank"
       margin="0"
       bleed="0"
       inkscape:export-filename=".\increment\blank.png"
       inkscape:export-xdpi="11.641666"
       inkscape:export-ydpi="11.641666" />
    <inkscape:page
       x="29.934187"
       y="54.682922"
       width="12"
       height="36"
       id="page6"
       margin="0"
       bleed="0"
       inkscape:label="share"
       inkscape:export-filename=".\increment\share.png"
       inkscape:export-xdpi="25.399996"
       inkscape:export-ydpi="25.399996" />
    <inkscape:page
       x="61.871841"
       y="-0.35355338"
       width="24"
       height="24"
       id="page7"
       margin="0"
       bleed="0"
       inkscape:label="selector-nopress"
       inkscape:export-filename=".\increment\selector-press.png"
       inkscape:export-xdpi="25.399996"
       inkscape:export-ydpi="25.399996" />
    <inkscape:page
       x="62.666664"
       y="27.499998"
       width="24"
       height="24"
       id="page8"
       margin="0"
       bleed="0"
       inkscape:label="selector-press"
       inkscape:export-filename=".\increment\selector-press.png"
       inkscape:export-xdpi="25.399996"
       inkscape:export-ydpi="25.399996" />
  </sodipodi:namedview>
  <defs
     id="defs1" />
  <g
     inkscape:label="Layer 1"
     inkscape:groupmode="layer"
     id="layer1">
    <rect
       style="fill:#e1e1e1;fill-opacity:0.75;stroke:#323232;stroke-width:0.5;stroke-linecap:square;stroke-miterlimit:0;stroke-dasharray:none;stroke-opacity:1;paint-order:markers fill stroke"
       id="rect2"
       width="27.5"
       height="23.5"
       x="0.25"
       y="0.25" />
    <path
       id="rect1"
       style="fill:#505050;fill-opacity:1;stroke-width:0.0999997;stroke-linecap:square;stroke-miterlimit:0;paint-order:markers fill stroke"
       d="M 6.0000004,10.066667 H 22 v 3.866666 H 6.0000004 Z M 15.933333,4 V 20 H 12.066667 V 4 Z"
       sodipodi:nodetypes="cccccccccc" />
  </g>
  <g
     inkscape:groupmode="layer"
     id="layer21"
     inkscape:label="Layer 2">
    <rect
       style="fill:#b4b4b4;fill-opacity:0.75;stroke:#323232;stroke-width:0.5;stroke-linecap:square;stroke-miterlimit:0;stroke-dasharray:none;stroke-opacity:1;paint-order:markers fill stroke"
       id="rect2-8"
       width="27.5"
       height="23.5"
       x="0.66666669"
       y="26.916666" />
    <path
       id="rect1-0"
       style="fill:#787878;fill-opacity:1;stroke-width:0.0999997;stroke-linecap:square;stroke-miterlimit:0;paint-order:markers fill stroke"
       d="M 6.4166664,36.983335 H 22.416668 v 3.866666 H 6.4166664 Z m 9.9333346,-6.066667 v 16 h -3.866667 v -16 z"
       sodipodi:nodetypes="cccccccccc" />
    <rect
       style="fill:#b4b4b4;fill-opacity:0.75;stroke:#323232;stroke-width:0.5;stroke-linecap:square;stroke-miterlimit:0;stroke-dasharray:none;stroke-opacity:1;paint-order:markers fill stroke"
       id="rect2-8-6"
       width="27.5"
       height="23.5"
       x="29.5"
       y="27.583332" />
    <path
       id="rect1-0-6"
       style="fill:#787878;fill-opacity:1;stroke-width:0.0999997;stroke-linecap:square;stroke-miterlimit:0;paint-order:markers fill stroke"
       d="M 35.249999,37.650002 H 51.25 v 3.866666 H 35.249999 Z"
       sodipodi:nodetypes="ccccc" />
  </g>
  <g
     inkscape:groupmode="layer"
     id="layer25"
     inkscape:label="Layer 4">
    <rect
       style="fill:#e1e1e1;fill-opacity:0.75;stroke:#787878;stroke-width:0.5;stroke-linecap:square;stroke-miterlimit:0;stroke-dasharray:none;stroke-opacity:1;paint-order:markers fill stroke"
       id="rect2-32"
       width="23.5"
       height="23.5"
       x="62.121841"
       y="-0.10355339" />
    <path
       sodipodi:type="star"
       style="fill:#505050;fill-opacity:1;stroke:none;stroke-width:0.552574;stroke-linecap:round;stroke-linejoin:round;stroke-miterlimit:0;stroke-dasharray:none;stroke-opacity:1;paint-order:markers fill stroke"
       id="path7"
       inkscape:flatsided="true"
       sodipodi:sides="3"
       sodipodi:cx="68.942909"
       sodipodi:cy="6.0104074"
       sodipodi:r1="8.1317282"
       sodipodi:r2="4.0658641"
       sodipodi:arg1="1.5707963"
       sodipodi:arg2="2.6179939"
       inkscape:rounded="0"
       inkscape:randomized="0"
       d="m 68.942909,14.142136 -7.042283,-12.1975924 14.084566,-4e-7 z"
       inkscape:transform-center-y="1.657935"
       transform="matrix(0.99999742,0.00185982,-0.00227151,0.81876017,4.9335294,4.9392081)"
       inkscape:transform-center-x="-0.0092356638" />
  </g>
  <g
     inkscape:groupmode="layer"
     id="layer26"
     inkscape:label="Layer 5">
    <rect
       style="fill:#b4b4b4;fill-opacity:0.74901962;stroke:#787878;stroke-width:0.5;stroke-linecap:square;stroke-miterlimit:0;stroke-dasharray:none;stroke-opacity:1;paint-order:markers fill stroke"
       id="rect2-32-2"
       width="23.5"
       height="23.5"
       x="62.916664"
       y="27.749998" />
    <path
       sodipodi:type="star"
       style="fill:#787878;fill-opacity:1;stroke:none;stroke-width:0.653132;stroke-linecap:round;stroke-linejoin:round;stroke-miterlimit:0;stroke-dasharray:none;stroke-opacity:1;paint-order:markers fill stroke"
       id="path7-0"
       inkscape:flatsided="true"
       sodipodi:sides="3"
       sodipodi:cx="68.942909"
       sodipodi:cy="6.0104074"
       sodipodi:r1="8.1317282"
       sodipodi:r2="4.0658641"
       sodipodi:arg1="1.5707963"
       sodipodi:arg2="2.6179939"
       inkscape:rounded="0"
       inkscape:randomized="0"
       d="m 68.942909,14.142136 -7.042283,-12.1975924 14.084566,-4e-7 z"
       inkscape:transform-center-y="1.4921412"
       transform="matrix(0.79530738,0.00167384,-0.00180655,0.73688416,19.839375,33.463484)"
       inkscape:transform-center-x="-0.0073449542" />
  </g>
  <g
     inkscape:groupmode="layer"
     id="layer24"
     inkscape:label="share">
    <path
       d="m 39.100855,76.405814 c -0.401111,0 -0.76,0.271067 -1.034444,0.695782 l -3.763058,-3.749999 c 0.02639,-0.207818 0.0475,-0.415662 0.0475,-0.632531 0,-0.216866 -0.0211,-0.424697 -0.0475,-0.632527 l 3.720835,-3.713858 c 0.285,0.451809 0.659721,0.731929 1.076667,0.731929 0.876109,0 1.583333,-1.210843 1.583333,-2.710842 0,-1.500003 -0.707224,-2.710844 -1.583333,-2.710844 -0.876111,0 -1.583333,1.210841 -1.583333,2.710844 0,0.216868 0.0211,0.424698 0.0475,0.632529 l -3.720833,3.713853 c -0.285,-0.451805 -0.659723,-0.731926 -1.076667,-0.731926 -0.876111,0 -1.583334,1.210845 -1.583334,2.710842 0,1.500001 0.707223,2.710844 1.583334,2.710844 0.416944,0 0.791667,-0.280117 1.076666,-0.731929 l 3.757778,3.759038 c -0.02639,0.18975 -0.04223,0.388554 -0.04223,0.587348 0,1.454819 0.691389,2.638557 1.54111,2.638557 0.849722,0 1.541111,-1.183738 1.541111,-2.638557 0,-1.454818 -0.691389,-2.638553 -1.541111,-2.638553 z m 0,-10.915662 c 0.290278,0 0.527778,0.406627 0.527778,0.903616 0,0.496985 -0.2375,0.903614 -0.527778,0.903614 -0.290278,0 -0.527778,-0.406629 -0.527778,-0.903614 0,-0.496989 0.2375,-0.903616 0.527778,-0.903616 z m -6.333334,8.132528 c -0.290279,0 -0.527778,-0.406624 -0.527778,-0.903614 0,-0.496987 0.237499,-0.903612 0.527778,-0.903612 0.290278,0 0.527777,0.406625 0.527777,0.903612 0,0.49699 -0.237499,0.903614 -0.527777,0.903614 z m 6.333334,6.343374 c -0.290278,0 -0.527778,-0.406625 -0.527778,-0.903614 0,-0.496987 0.2375,-0.903612 0.527778,-0.903612 0.290278,0 0.527778,0.406625 0.527778,0.903612 0,0.496989 -0.2375,0.903614 -0.527778,0.903614 z"
       id="path1"
       style="stroke-width:0.264582" />
  </g>
  <g
     inkscape:groupmode="layer"
     id="layer22"
     inkscape:label="Layer 3">
    <rect
       style="fill:#e1e1e1;fill-opacity:0.75;stroke:#323232;stroke-width:0.5;stroke-linecap:square;stroke-miterlimit:0;stroke-dasharray:none;stroke-opacity:1;paint-order:markers fill stroke"
       id="rect2-3"
       width="27.5"
       height="23.5"
       x="29.166668"
       y="-0.24999999" />
    <path
       id="rect1-9"
       style="fill:#505050;fill-opacity:1;stroke-width:0.0999997;stroke-linecap:square;stroke-miterlimit:0;paint-order:markers fill stroke"
       d="m 34.916667,9.566667 h 16 v 3.866667 h -16 z"
       sodipodi:nodetypes="ccccc" />
  </g>
</svg>
